<?xml version="1.0" standalone="no"?>
<!DOCTYPE svg PUBLIC "-//W3C//DTD SVG 20010904//EN"
 "http://www.w3.org/TR/2001/REC-SVG-20010904/DTD/svg10.dtd">
<svg version="1.0" xmlns="http://www.w3.org/2000/svg"
 width="180.000000pt" height="180.000000pt" viewBox="0 0 180.000000 180.000000"
 preserveAspectRatio="xMidYMid meet">

<g transform="translate(0.000000,180.000000) scale(0.100000,-0.100000)"
fill="#000000" stroke="none">
<path d="M0 900 l0 -900 900 0 900 0 0 900 0 900 -900 0 -900 0 0 -900z m557
120 c-6 -29 -5 -30 28 -30 35 0 40 -5 29 -34 -4 -10 -18 -16 -39 -16 -33 0
-34 -2 -45 -55 -16 -79 -11 -100 22 -98 31 2 50 -33 27 -48 -26 -16 -88 -10
-109 11 -25 25 -25 42 1 171 26 135 23 129 60 129 30 0 31 -2 26 -30z m991 0
c-4 -28 -3 -30 29 -30 33 0 38 -6 27 -34 -4 -10 -18 -16 -39 -16 -32 0 -33 -1
-45 -65 -15 -79 -9 -99 24 -91 19 5 26 1 31 -14 10 -31 -2 -40 -51 -40 -48 0
-84 25 -84 59 0 16 29 170 45 239 4 17 12 22 36 22 29 0 31 -2 27 -30z m-1175
-29 c49 -12 50 -13 36 -44 -10 -22 -15 -24 -31 -16 -10 6 -38 9 -61 7 -34 -2
-42 -7 -42 -23 0 -14 10 -21 38 -27 21 -4 47 -13 58 -19 46 -24 39 -98 -12
-124 -34 -18 -128 -20 -164 -3 -29 13 -30 17 -12 43 12 16 18 16 47 7 45 -16
85 -15 100 3 17 21 5 32 -40 40 -81 14 -111 65 -69 119 31 39 85 52 152 37z
m458 -4 c-1 -4 -1 -16 -1 -27 0 -21 -4 -24 -52 -34 -34 -8 -52 -40 -68 -128
l-12 -68 -35 0 c-28 0 -33 3 -29 18 3 9 15 68 27 130 22 111 22 112 50 112 16
0 29 -4 29 -9 0 -5 17 -3 38 5 38 13 54 14 53 1z m234 -13 c26 -17 45 -55 45
-89 0 -22 -6 -25 -100 -41 -69 -12 -100 -22 -100 -31 0 -31 92 -39 127 -11 8
6 15 2 23 -13 19 -34 -8 -52 -85 -57 -63 -4 -66 -3 -100 31 -30 30 -35 42 -35
81 0 48 17 93 44 115 48 40 133 47 181 15z m295 -2 c31 -23 58 -88 43 -103 -6
-6 -54 -18 -107 -27 -55 -9 -95 -21 -93 -27 2 -5 17 -16 32 -24 26 -12 35 -12
71 1 38 13 42 13 53 -4 15 -25 15 -25 -19 -43 -41 -21 -118 -19 -156 4 -87 53
-53 208 52 241 39 12 93 4 124 -18z"/>
<path d="M942 933 c-7 -3 -19 -18 -28 -35 -16 -30 -16 -31 8 -25 12 3 41 9 63
12 67 11 70 13 50 35 -17 19 -62 25 -93 13z"/>
<path d="M1225 915 c-31 -31 -32 -49 -2 -42 12 4 41 9 65 13 48 7 59 18 42 39
-20 24 -77 19 -105 -10z"/>
</g>
</svg>
